<svg xmlns="http://www.w3.org/2000/svg" width="24.908" height="24.908" viewBox="0 0 24.908 24.908">
  <path id="パス_25" data-name="パス 25" d="M1311.031,713.272c-.1-.161-.208-.315-.315-.463a8.669,8.669,0,0,0-.858-1,8.4,8.4,0,0,0-11.878,0c-.054.054-.107.114-.161.167a8.406,8.406,0,0,0-8.388-7.972,8.235,8.235,0,0,0-2.492.375l-.342.1-.08.348c-.04.181-.074.362-.1.549a7.727,7.727,0,0,0-.107,1.307,8.417,8.417,0,0,0,8.407,8.408,8.022,8.022,0,0,0,1.7-.181v14h1.226v-13.03l.033.033a8.4,8.4,0,0,0,13.379-2.03l.167-.315Zm-5.724-2.561.063.013Z" transform="translate(-1286.31 -704)" fill="#17a669"/>
</svg>
